<svg xmlns="http://www.w3.org/2000/svg" version="1.0" viewBox="0 0 1407 390">
  <path stroke="#000" stroke-width=".5" d="M716.9 82.3c.5 1.3.6 2.8.3 3.4-1.3 2-7.7 5.3-10.4 5.3-2.9 0-3.8 1.4-1.5 2.4.7.3-.7 2.3-3.8 5.3l-5.1 4.8 1.2 4.6c1.5 6 3.9 10.4 6.6 12.3 2 1.4 2.4 1.4 4.1-.2 1.1-.9 3-4.1 4.3-7 1.9-4.2 2.8-5.2 4.8-5.2 2.1 0 2.8.9 4.6 5.7 1.3 3.5 2.3 9.1 2.6 14.3.3 4.7 1.2 12.8 2.1 18 1.2 7.7 1.3 11.9.5 22.1-.9 11.8-.4 21 1.2 22.7.4.4 3.9.7 7.8.7 6.5 0 7.2-.2 9.1-2.8 1.8-2.3 2.2-4.8 2.8-16.8.4-7.8.9-14.2 1.1-14.4.2-.1 3.7-1.4 7.8-2.8 6.1-2.1 24.7-5.4 25.6-4.4.1.1.7 3.8 1.3 8.2.6 4.4 2.1 10 3.3 12.4 2.4 5 12.5 15.7 17.8 19 4.5 2.7 12.8 2.9 15.9.3 2.7-2.1 4.4-9.3 3.6-14.3-.6-3.2-1.2-4-4.8-5.4-8.3-3.3-11-7.4-12.7-19.1-1.5-11.5-4.4-21.6-7.5-27.1-1.6-2.6-3.1-6.6-3.4-8.8-.5-3.4-1-4-3.2-4.3-2-.2-2.8.2-3.2 1.9-.6 2.2-.7 2.2-14.4 1.6-21.2-1-21.3-1-40.5-19.2-16.1-15.3-19.7-17.9-17.9-13.2zm-82.5 50.1c-3.9 3.9-4.3 6.7-1.7 13.8 1.6 4.5 1.6 5 0 8.3-1.2 2.4-1.7 6.1-1.7 11.6 0 5.3-.7 10.6-2.1 15.4-2.2 7.6-2.1 10.1.6 11.2 2.6.9 4.2-1.3 2.7-3.7-1-1.7-.8-2.7 1.9-6.7 1.8-2.7 5-6.3 7.2-8.1 4.5-3.7 9.1-4.1 19.2-1.7 3.3.8 7.4 1.5 9.2 1.5 2.9 0 3.3.4 5.2 5.5 1.2 3.1 2.1 6.4 2.1 7.3 0 2.4 2.8 6.2 4.6 6.2 1.9 0 3-2.8 1.5-4.3-.6-.6-1.1-4.3-1.1-8.2 0-6 .3-7.5 2.1-9.1 4.4-4 6.2-9.3 5.6-16.6-.5-6.2-.4-6.9 1.7-8.5 4.7-3.7 5.7-9.1 1.5-7.8-1.4.5-2.1 0-2.9-1.9-.5-1.4-1.9-3.2-3.2-4-2.5-1.6-10.3-2.5-11.4-1.3-.4.4-2.5.4-4.7 0-3.8-.6-3.9-.5-3.2 1.8.4 1.3 1.3 3.4 2.1 4.6 1.4 2.2 1 7-.8 10.5-1.1 2.3-8.1 2.4-17.4.2-3.7-.8-7.6-1.4-8.8-1.3-3.8.3-4.3-.1-6-4-2-4.4-1.1-7.1 3.1-9 2.2-1 4.5-.4 10.6 2.7 1.6.8.6-1.8-1.9-4.7-2.1-2.5-3.3-3.1-6.6-3.1-3.2 0-4.7.7-7.4 3.4zM457.3 211c-5.7 1.2-9.2 3.2-13.4 7.7-4.9 5.1-6.7 9-7.8 16.5-2 14.5 2.9 26.2 13.6 32.5 3.6 2.1 6.3 2.7 12.4 3.1 7.3.4 8.4.2 14.4-2.7 11-5.4 16.2-15.5 15.3-29.5-1.1-16.2-10.3-26.3-25.3-27.9-2.7-.3-6.9-.2-9.2.3zm11.9 7c4.9 1.4 9.3 5.2 12.1 10.4 1.7 3.3 2.2 5.8 2.2 12.6 0 10-2.2 15.1-8.1 19.7-3.1 2.3-4.9 2.8-10.8 3.1-6.4.3-7.5.1-11.4-2.5-6.1-4-9.2-10.6-9.2-19.7 0-9.7 1.5-14.4 6-18.7 5.5-5.3 11.9-6.9 19.2-4.9zm115.5-7c-13.1 3.3-20.5 12.8-21.5 27.6-.9 13.8 4.3 24 15 29.3 7.2 3.6 15.4 4.1 23.3 1.4 6.5-2.2 13.6-9.3 15.8-15.8 2.4-6.9 2.2-19-.3-25.9-2.3-6-8.5-12.5-14.4-15-4.7-1.9-13.2-2.7-17.9-1.6zm15.4 8.7c7.3 3.8 10.9 10.4 10.9 20.2 0 8.9-1.4 13.5-5.6 18.1-4.3 4.8-8.8 6.4-16.5 5.8-4.6-.3-6.6-1-9.6-3.4-5.9-4.8-7.8-9.5-7.8-19.4 0-10.2 2.6-16.7 8.1-20.1 7.5-4.6 13-4.9 20.5-1.2zm78.9-9.1c-15.5 2.9-24.2 13.5-24.3 29.9-.2 12.8 4.8 22.1 14.7 27.3 4.6 2.4 6.2 2.7 15.1 2.7 9 0 10.5-.3 15.5-2.8 9.1-4.7 9-4.5 9-16.9V240h-25v7h17v11.8l-4.7 2.3c-5.6 2.7-14.6 3.6-19.7 1.9-9.1-3-13.5-10.2-13.6-22 0-8.8 3-16.4 7.7-19.8 8-5.7 20.6-5 26.2 1.4 1.7 1.9 3.1 4.1 3.1 4.9 0 2.2 1.5 2.6 4.9 1.4 2.6-.9 3-1.5 2.5-3.3-1.9-6.3-5.7-10.6-11.4-13-3.9-1.6-13.2-2.7-17-2zm124 .5c-2.4.5-6.4 2.1-8.9 3.7-14.8 9.1-17.4 34.8-4.8 48.1 10.1 10.6 29.7 10.9 40.1.5 10-10 11-30.1 2.3-42.3-5.8-8-17.8-12.2-28.7-10zm12.2 6.9c4.5 1.3 9.3 5.2 11.4 9.1 4.2 8.3 3.7 21.8-1.1 29.1-7 10.5-25.1 10.5-32 0-4.8-7.4-5.5-18.8-1.5-27.7 3.9-9 13.3-13.2 23.2-10.5zm53.9-7c-9.2 1.9-16.4 8.1-19.7 17.1-2.6 7-2.4 20.2.4 26.4 4.9 10.8 13.8 16.5 25.7 16.5 11.9 0 20.8-5.7 25.7-16.5 2.8-6.2 3.1-19.5.5-26.3-4.9-12.8-18.5-20-32.6-17.2zm12.1 7c10.5 2.9 16.3 15.2 13.8 28.7-2 11.3-8.9 17.3-19.5 17.3-10.5 0-17.4-6-19.5-16.9-1.1-6-.1-15.2 2.3-19.8 4.2-8 13.6-11.8 22.9-9.3zm212.1-7c-8.9 1.9-15 6.6-19.4 15-2.1 3.9-2.4 5.9-2.4 15 0 9.8.2 10.9 3 15.9 5.5 10 15.2 14.7 28.6 13.9 6.5-.4 9.2-1.1 14.7-3.9l6.7-3.4.3-11.8.3-11.8-12.3.3-12.3.3-.3 3.2-.3 3.3h17.1v12l-4.2 2.1c-2.6 1.3-6.9 2.4-10.9 2.7-15.2 1.1-24.1-9.1-22.6-25.8 1.2-13.4 8.3-20.5 20.7-20.5 8.1 0 13.1 2.7 15.6 8.5 1.5 3.5 2.1 3.9 4.3 3.3 3.9-.9 4.4-1.8 3.2-5.5-1.4-4.2-6.4-9.2-11.1-11.2-4.7-1.9-13.5-2.7-18.7-1.6zm-810.6.7c-.4.3-.7 13.6-.7 29.5V270h37v-7h-29v-52h-3.3c-1.9 0-3.7.3-4 .7zm48.3 28.8V270h44.1l-.3-3.3-.3-3.2-18-.5-18-.5v-19l16.3-.3 16.2-.2v-7l-16.2-.2-16.3-.3v-17l17.3-.3 17.2-.2v-7h-42v29.5zm52.7-28.8c-.4.3-.7 1.9-.7 3.5v2.8h19v52h8l.2-25.8.3-25.7 9.3-.3 9.2-.3V211h-22.3c-12.3 0-22.7.3-23 .7zm121 0c-.4.3-.7 13.6-.7 29.5V270h7.9l.3-12.8.3-12.7 5.7-.3c9.2-.5 11.7 1.3 20.5 14.4l7.5 11.4h9.8l-5.9-9.3c-3.3-5-7.9-11.1-10.2-13.5-3.1-3-3.8-4.2-2.6-4.2 3.3 0 9.8-4.1 11.7-7.3 1.3-2 2-5 2-8 0-8.6-4.5-14.1-12.9-15.7-6-1.1-32.4-1.4-33.4-.3zm32.8 7.7c3.7 1.6 5.5 4.2 5.5 8.1 0 7.4-4.3 9.5-19.5 9.5H512v-19h11c7.3 0 12.2.5 14.5 1.4zm185.5 21V270h6.9l.3-12.8.3-12.7h7c5.2 0 7.8.5 9.9 1.8 1.5 1.1 6 6.8 9.9 12.8l7.1 10.9h4.8c3.7 0 4.7-.3 4.2-1.3-5.5-9.3-13.8-20.9-16.4-22.9l-3.2-2.5 3.6-.7c5-1 10.3-5.9 11.6-10.8 1.3-4.7.6-9-2.3-13.7-3.3-5.4-7-6.4-26.4-6.9l-17.3-.4v29.6zm35.4-19.5c3.6 3.4 3.6 9.8 0 13.2-2.4 2.2-3.4 2.4-15.5 2.7l-12.9.4v-9c0-4.9.3-9.2.7-9.6.5-.4 6.3-.6 13-.4 11.2.3 12.3.5 14.7 2.7zm157.1-8.7c-.3.7-.4 13.9-.3 29.3l.3 28 3.8.3 3.7.3v-23.2c0-13.6.4-22.9.9-22.4.5.6 4.2 10.9 8.4 23l7.5 22h7.6l8.1-23 8-23 .3 23.2.2 23.3h8l-.2-29.3-.3-29.2-4.4-.3c-2.4-.2-4.8.1-5.2.5-.5.5-4.7 11.7-9.3 24.8-7.5 21.6-8.5 23.7-9.5 21.5-.6-1.4-4.4-12.4-8.4-24.5l-7.4-22-5.7-.3c-3.9-.2-5.8.1-6.1 1zm72.5 28.3V270h7v-59h-7v29.5zm23.7-28.8c-.4.3-.7 13.6-.7 29.5V270h8l.2-22.3.3-22.2 14.9 22.2 14.9 22.3h8.7l-.2-29.3-.3-29.2h-7l-.5 22.3-.5 22.4-15.3-22.6c-14.7-21.8-15.4-22.6-18.6-22.6-1.8 0-3.6.3-3.9.7zm-401.1 77.8c-1 1.9-2.6 3.7-3.5 3.9-.9.2-2.9.7-4.5 1.1l-2.9.6 3.2 3.3c2.9 2.9 3.1 3.6 2.5 7.8l-.7 4.6 4.6-1.6c4.3-1.5 4.8-1.5 8.3.1l3.7 1.8-.5-4.5c-.5-3.8-.1-4.9 2.3-8 3.2-3.8 3.1-4-2.2-5-2.8-.5-3.9-1.4-5.2-4.1-.9-1.9-2-3.5-2.5-3.5-.4 0-1.6 1.6-2.6 3.5zm205 0c-1 1.9-2.6 3.7-3.5 3.9-.9.2-2.9.7-4.5 1.1l-2.9.6 3.2 3.3c3.1 3.1 3.2 3.7 2.5 8.1-.6 4.5-.5 4.8 1.2 4 7.2-2.9 7.3-2.9 11-1.2l3.7 1.8-.5-4.5c-.5-3.8-.1-4.9 2.3-8 3.2-3.8 3.1-4-2.2-5-2.8-.5-3.9-1.4-5.2-4.1-.9-1.9-2-3.5-2.5-3.5-.4 0-1.6 1.6-2.6 3.5zm-158.2-.2c-.2.7-.3 5.6-.2 10.8l.3 9.4h7.4c5.1 0 7.6-.4 7.9-1.3.3-.9-1.4-1.2-6.2-1.2H660v-6.9l5.5-.3c3-.2 5.5-.8 5.5-1.3 0-.6-2.5-1.1-5.5-1.3-5.3-.3-5.5-.4-5.5-3.2 0-2.9.1-2.9 6.3-3.2 8.5-.4 7.8-2.2-1.1-2.6-5.4-.2-7.4.1-7.8 1.1zm60.8.3c-2.5 1.7-2.9 4.4-.7 4.4.8 0 1.5-.4 1.5-1 0-1.4 3.6-3.1 5.4-2.4.8.3 1.8 1.5 2.2 2.6.5 1.6-.7 3.3-5 7.7-3.1 3.1-5.6 6.5-5.6 7.4 0 1.6.9 1.8 6.8 1.5 7.8-.3 8.7-2.2 1.2-2.6l-5.1-.3 5-4.8c4-3.7 5.1-5.4 5.1-7.8 0-3.5-2.9-6.3-6.5-6.3-1.1 0-3.1.7-4.3 1.6zm17.3.9c-2.2 2.1-2.5 3.3-2.5 9 0 7.3 2 10.5 6.5 10.5s6.5-3.2 6.5-10.5c0-5.7-.3-6.9-2.5-9-1.3-1.4-3.1-2.5-4-2.5-.9 0-2.7 1.1-4 2.5zm5.9.8c2.7 2 3.4 10.8 1.2 14.2-2 3.1-4 3.2-6 .3-2.9-4.1-1.2-15.8 2.3-15.8.4 0 1.5.6 2.5 1.3zm13.2.2c-2.3 1.9-3.4 3.5-2.8 3.9.6.3 1.3.2 1.7-.4 1.6-2.6 2.5-.4 2.5 6.4 0 4.1.5 7.8 1 8.1 1.7 1 2.1-1.7 1.8-11.7l-.3-9.6-3.9 3.3zm13.9-1c-3.4 3.3-3.6 12.8-.4 16.9 5.6 7.1 13.5-1.1 11.5-12-1.4-7-6.7-9.4-11.1-4.9zm6.9 1.1c1.1 1 1.6 3.4 1.6 7.4s-.5 6.4-1.6 7.4c-3.8 3.9-6.7.7-6.7-7.6 0-4.8.4-6.4 1.8-7.4 2.4-1.8 3-1.7 4.9.2zm-82.7-1.9c-.4.3-.7 1.4-.7 2.4 0 .9-.6 2-1.2 2.3-1 .5-1 .7 0 1.2.7.4 1.2 2.7 1.2 6.4 0 6.2 1.6 8.8 4.7 7.5 1.7-.6 1.7-.7.1-1.6-2.2-1.2-2.6-11.4-.5-12.3 1-.5 1-.7 0-1.2-.7-.3-1.3-1.7-1.3-3 0-2.3-1-3.1-2.3-1.7zm-15.1 5.9c-3.1 3.1-.8 6.3 5.7 7.8 3.5.8 3.5 3.4 0 4.2-1.8.5-3 .2-3.8-1-1.3-1.7-3.5-2.2-3.5-.8 0 1.7 3.7 4.2 6.3 4.2 2.5 0 6.7-3 6.7-4.8-.1-1.7-1.9-3.3-5.5-4.5-2.1-.8-4.1-1.9-4.3-2.5-.6-1.8 2.8-2.7 4.9-1.4 3 1.9 4.4 1.4 2.4-.8-2.2-2.4-6.7-2.6-8.9-.4zm23.4 12.9c0 .8.5 1.5 1 1.5.6 0 1-.7 1-1.5s-.4-1.5-1-1.5c-.5 0-1 .7-1 1.5z" />
</svg>
