<?xml version="1.0" encoding="utf-8"?>
<!-- Generator: Adobe Illustrator 18.0.0, SVG Export Plug-In . SVG Version: 6.00 Build 0)  -->
<!DOCTYPE svg PUBLIC "-//W3C//DTD SVG 1.1//EN" "http://www.w3.org/Graphics/SVG/1.1/DTD/svg11.dtd">
<svg xmlns="http://www.w3.org/2000/svg" xmlns:xlink="http://www.w3.org/1999/xlink" version="1.1" id="Слой_1" x="0px" y="0px" viewBox="0 233.3 612 359.3" enable-background="new 0 233.3 612 359.3" xml:space="preserve">
<path fill="#000000" stroke="" stroke-width="2" stroke-linecap="round" stroke-linejoin="round" stroke-miterlimit="10" d="  M604,551.7c-0.8-14,6.2-40.5,6.2-40.5c0.4-15.2-19.9-15.6-19.9-15.6c-12.8-3.9-20.3-33.1-20.3-33.1c-3.5-23-18.3-45.2-18.3-45.2  c-14.8-26.9-100.6-19.1-100.6-19.1c-9.7-1.6-117.3-5.4-117.3-5.4c-17.6-0.4-53.4-6.6-53.4-6.6c-12.5-5.4-42.9-15.2-42.9-15.2  c-5.1-4.7-17.9-10.2-17.9-10.2c-4.3-1.6-8.2-5.9-8.2-5.9c-5.4-27.7-40.2-82.2-40.2-82.2s-5.1-24.1-11.2-23.1c0,0-8.5-21.5-39.4-14.9  c0,0-46.1,3.3-53.3,25.6c0,0-6.9,10-28.2,19.5c0,0-24.6,11.3-31.8,18.7c0,0-12.8,5.9-1,15.7c0,0,9.7,3.3,14.3,8.7  c0,0,9,6.9,21.3,4.1c0,0,45.1-4.1,53.5-1.3c0,0,9,2.6,11.3,2.6c0,0,2,12.1,6.6,10.8c0,0,4.4,33.3,9.5,40.2c0,0,6.6,22.5,2.5,38.4  c0,0-10.2,43.3,25,79c0,0,44,32.3,54.1,35.4c0,0-0.8,12.1,0,17.5c0,0-7.4,13.3-8.5,17.7c-1,4.4-6.4,2.3-9.2-0.2  c0,0-8.2-2.9-15.4,7.9c0,0-9.4,1.8-8.2,8.7c0,0,2.8-1.6,5.9,0c0,0,6.2,4.6,10.3,3.8c0,0,13.3,3.8,19.2,0.1c0,0,11.3,2.5,15.4-4.7  c0,0,5-1.9,4-10c-0.1-0.3-0.1-0.7-0.1-1c-1.6-9,7.9,16.9,20.7,1.6c0,0,4.1-1.6,3.3-5.9l-4.1,1.3c0,0,0.5-5.4-1-6.6  c0,0,2.3-1,1.6-4.6h-3c0,0-4.4-5.1,0.8-9.7c0,0,3-0.2,3.8-2.8c0,0,61-3.8,104.8-26.7c0,0,50.5-17.8,87.4-17.8c0,0,28.8-2.2,34.4,1.1  c35.1,20.3,48.7,18.2,48.7,18.2c16.7-0.8,20,2.8,20,2.8c4.6,4.1,3.1,23.7,3.1,23.7c-0.6,3.5-2.7,6.1-2.7,6.1  c-6.9-1.7-10.4,5.4-10.4,5.4c-1.3,2.6-1.6,4.4-1.4,5.6c-0.8,1.2-1.3,2.7-0.6,4.5l2.7-1.6c0.1,0,0.1,0.1,0.1,0.1  c0.4,0.5,0.8,1,1.3,1.4c-0.5,1.1-0.7,2.4,0,3.4l3.2-2c3.4,0.6,7-0.8,7-0.8c0.8,0.7,1.8,1.1,2.7,1.3c0,1.1,0.4,2.3,1.5,3.3l2.2-3.3  c3.5-0.7,6.5-3,6.5-3c5.7-1.7,5.2-19.2,5.2-19.2c0.5-9,4.4-20.3,4.4-20.3c0.5,21.3,10.5,32.3,10.5,32.3l-1-6.4  c5.4,11.8,10.8,10.5,10.8,10.5c-9-7.7-9.7-41.8-9.7-41.8l3.3,0.2c9.7-1,11.4,25,11.4,25c-0.8,8.2,1.1,13.9,1.1,13.9  c-0.2,4.2-2.5,7.7-2.5,7.7c-9-1-12.3,7.9-12.3,7.9c-1.3,3.4-1.4,5.6-1,7.2c-0.8,1.7-1.3,3.9,0.4,5.8c0,0,1.1-1.6,2.1-2.9  c0.4,0.2,0.7,0.2,0.7,0.2c1.7,2,3.9,2.6,6.2,2.7c0.1,1,0.4,2,1.2,3.2c0,0,1.6-1.6,2.7-3.6c2.5-0.6,4.4-1.5,4.4-1.5  c1.7,1,3.4,1.3,5.1,1.3c0.5,1,1.3,2.1,2.3,2.9l0.8-3.4c4.2-1.4,7.6-4.5,7.6-4.5c6.9-2.8,1.1-17.5,1.1-17.5  C607.7,564.9,604,551.7,604,551.7z"/>
</svg>
